<?xml version="1.0" encoding="UTF-8"?>
<svg id="Layer_2" data-name="Layer 2" xmlns="http://www.w3.org/2000/svg" viewBox="0 0 106.77 114.91">
  <defs>
    <style>
      .cls-1 {
        fill: #061527;
      }
    </style>
  </defs>
  <g id="Layer_1-2" data-name="Layer 1">
    <path class="cls-1" d="m106.62,49.87c-1.98,31.18-34.09,65.04-47.54,65.04S-16.59,89.69,4.22,2.44c1.08-4.53,12.29-1.8,14.04.5s-5.43,23.22-3.12,47.31c3.1,32.22,35.81,49.57,42.46,49.46,6.65-.12,18.5-14.4,18.5-14.4,0,0,17.53-22.3,17.83-36.51.24-11.83-4.27-28.97-23.84-29.73-17.77-.7-28.34,6.95-30.74,22.7-.21,1.34,42.19.04,43.56,1.8,1.38,1.75,1.03,9.09,0,10.93-1.03,1.83-43.57-.25-43.45.57,2.43,16.36,24,22.2,24.77,26.33s-4.82,6.27-8.33,5.96-29.4-15.06-31-38.14c-1.61-23.08,12.43-44.78,43.36-44.29,21.68.35,40.36,13.76,38.37,44.94Z"/>
  </g>
</svg>